<?xml version="1.0" standalone="no"?>
<!DOCTYPE svg PUBLIC "-//W3C//DTD SVG 20010904//EN"
 "http://www.w3.org/TR/2001/REC-SVG-20010904/DTD/svg10.dtd">
<svg version="1.0" xmlns="http://www.w3.org/2000/svg"
 width="600.000000pt" height="600.000000pt" viewBox="0 0 600.000000 600.000000"
 preserveAspectRatio="xMidYMid meet">
<metadata>
Created by potrace 1.11, written by Peter Selinger 2001-2013
</metadata>
<g transform="translate(0.000000,600.000000) scale(0.100000,-0.100000)"
fill="#000000" stroke="none">
<path d="M1432 5310 c-74 -35 -82 -42 -82 -67 0 -15 9 -48 20 -72 11 -24 20
-49 20 -56 0 -7 -22 -19 -49 -26 -81 -20 -80 -27 9 -243 42 -103 82 -192 88
-198 5 -5 44 -11 86 -11 l76 -2 135 -313 135 -313 -230 -997 c-127 -548 -242
-1044 -255 -1102 -120 -504 -241 -1047 -237 -1062 4 -17 38 -35 57 -29 6 2
746 3 1645 3 899 0 1639 3 1645 6 5 4 21 5 35 4 18 -2 80 32 215 118 292 187
286 182 292 212 3 14 14 28 24 31 27 7 24 36 -16 157 -43 130 -43 131 -7 120
39 -11 87 11 111 50 17 29 19 54 19 314 l1 283 -28 34 c-34 41 -75 44 -143 10
-54 -26 -58 -36 -57 -161 0 -47 0 -92 0 -101 -1 -17 -36 -29 -59 -21 -6 2
-167 475 -358 1050 -624 1888 -734 2217 -743 2230 -11 19 -280 109 -311 105
-14 -2 -303 -4 -643 -5 l-617 -1 -34 -31 c-29 -27 -37 -45 -59 -141 -14 -60
-53 -235 -88 -387 -35 -153 -67 -278 -70 -278 -4 0 -16 21 -27 48 -11 26 -43
97 -71 159 l-50 112 50 70 c27 39 49 76 49 83 0 23 -140 332 -156 344 -14 11
-42 5 -125 -30 -19 -8 -25 -1 -56 69 -34 79 -45 82 -141 35z m3511 -3567 c-1
-21 -2 -42 -3 -48 -1 -16 -17 17 -25 53 -5 27 -4 32 12 32 14 0 18 -7 16 -37z"/>
</g>
</svg>
